<svg width="55" height="50" viewBox="0 0 55 50" fill="none" xmlns="http://www.w3.org/2000/svg">
<g clip-path="url(#clip0_193_4)">
<path d="M5.5 50C3.9875 50 2.69317 49.3885 1.617 48.1656C0.540833 46.9427 0.00183333 45.4708 0 43.75V6.25C0 4.53125 0.539 3.06042 1.617 1.8375C2.695 0.614583 3.98933 0.00208333 5.5 0H49.5C51.0125 0 52.3077 0.612499 53.3857 1.8375C54.4637 3.0625 55.0018 4.53333 55 6.25V43.75C55 45.4687 54.4619 46.9406 53.3857 48.1656C52.3096 49.3906 51.0143 50.0021 49.5 50H5.5ZM27.5 28.125L5.5 12.5V43.75H49.5V12.5L27.5 28.125ZM27.5 21.875L49.5 6.25H5.5L27.5 21.875ZM5.5 12.5V6.25V43.75V12.5Z" fill="#1E1E1E"/>
</g>
<defs>
<clipPath id="clip0_193_4">
<rect width="55" height="50" fill="white"/>
</clipPath>
</defs>
</svg>
