<svg width="50" height="50" viewBox="0 0 50 50" fill="none" xmlns="http://www.w3.org/2000/svg">
<g clip-path="url(#clip0_150_16)">
<path d="M15 19.9998V36.6665M35 36.6665V28.3332C35 26.5651 34.2976 24.8694 33.0474 23.6191C31.7971 22.3689 30.1014 21.6665 28.3333 21.6665C26.5652 21.6665 24.8695 22.3689 23.6193 23.6191C22.369 24.8694 21.6667 26.5651 21.6667 28.3332V36.6665V19.9998M13.3333 14.9998H16.6667M5 1.6665H45C45.8841 1.6665 46.7319 2.01769 47.357 2.64281C47.9821 3.26794 48.3333 4.11578 48.3333 4.99984V44.9998C48.3333 45.8839 47.9821 46.7317 47.357 47.3569C46.7319 47.982 45.8841 48.3332 45 48.3332H5C4.11595 48.3332 3.2681 47.982 2.64298 47.3569C2.01786 46.7317 1.66667 45.8839 1.66667 44.9998V4.99984C1.66667 4.11578 2.01786 3.26794 2.64298 2.64281C3.2681 2.01769 4.11595 1.6665 5 1.6665Z" stroke="#1E1E1E" stroke-width="3.33333"/>
</g>
<defs>
<clipPath id="clip0_150_16">
<rect width="50" height="50" fill="white"/>
</clipPath>
</defs>
</svg>
